<svg id="Ebene_1" data-name="Ebene 1" xmlns="http://www.w3.org/2000/svg" xmlns:xlink="http://www.w3.org/1999/xlink" viewBox="0 0 109.13 36.85"><defs><clipPath id="clip-path"><rect width="109.13" height="36.85" style="fill:none"/></clipPath></defs><g style="clip-path:url(#clip-path)"><path d="M97.31,26.57H90.78V20.2h6.53a3.19,3.19,0,0,1,0,6.37m-.84-16.29a2.71,2.71,0,0,1,2.73,2.81,2.76,2.76,0,0,1-2.73,2.8H90.78V10.28Zm5,7.37a6.27,6.27,0,0,0,2.92-5.45,6.43,6.43,0,0,0-6.67-6.49H85.9V31.14H98.55a6.77,6.77,0,0,0,7.07-6.89,6.91,6.91,0,0,0-4.16-6.6m-31-.81v4.54H77.3A7.21,7.21,0,0,1,70,26.72a8,8,0,0,1-8.16-8.29,8,8,0,0,1,8.2-8.29,8.2,8.2,0,0,1,6.6,3.17l3.79-3.06a13.36,13.36,0,0,0-23.77,8.18A12.88,12.88,0,0,0,69.83,31.59c7.36,0,12.76-5.5,12.76-13V16.84Zm-22.3,14.3h5V5.71h-5Z" style="fill:#9dbd15"/><path d="M29.41,15.54a10.53,10.53,0,0,0-5.63-1.48c-6.47,0-8.23,4.31-12.14,6.65a18.48,18.48,0,0,0,2.2.13c8.09,0,8.82-4.48,15.57-5.3" style="fill:#003d72"/><path d="M33.77,15.54A15.65,15.65,0,0,0,2.83,16.92c2.75,1.38,4.62,3.29,8.81,3.79,3.91-2.34,5.67-6.65,12.14-6.65a10.53,10.53,0,0,1,5.63,1.48s1.4-.12,2.2-.12a17.78,17.78,0,0,1,2.16.12" style="fill:#9dbd15"/><path d="M29.41,15.54c-6.75.82-7.48,5.3-15.57,5.3a18.48,18.48,0,0,1-2.2-.13A10.46,10.46,0,0,1,6,22.2a11.85,11.85,0,0,1-2.87-.33A15.65,15.65,0,0,0,34,19.34a37,37,0,0,0-4.61-3.8" style="fill:#006eb7"/></g></svg>